<svg  xmlns="http://www.w3.org/2000/svg" viewBox="0 0 1108 924" preserveAspectRatio="xMidYMid meet"  width="651" height="628"><path d="M1012.795436 479.028701a216.966819 216.966819 0 0 0-368.701783-161.945168l-96.429697 96.429698c-3.970635 3.970635-7.941269 8.792119-11.911904 13.613604L359.626047 63.530153a217.250435 217.250435 0 0 0-307.156947 0c-117.984571 101.534799 0 307.156947 0 307.156947l224.057237 477.610618a213.279801 213.279801 0 0 0 153.153049 63.530153h559.57586a216.966819 216.966819 0 0 0 23.54019-432.79917zM1066.399003 968.267606H399.61601a28.361676 28.361676 0 1 0 0 54.738034H1066.399003a28.361676 28.361676 0 0 0 0-54.738034z" /></svg>







